<?xml version="1.0" encoding="UTF-8" standalone="no"?>
<!DOCTYPE svg PUBLIC "-//W3C//DTD SVG 1.1//EN" "http://www.w3.org/Graphics/SVG/1.1/DTD/svg11.dtd">
<svg width="100%" height="100%" viewBox="0 0 960 240" version="1.1" xmlns="http://www.w3.org/2000/svg" xmlns:xlink="http://www.w3.org/1999/xlink" xml:space="preserve" xmlns:serif="http://www.serif.com/" style="fill-rule:evenodd;clip-rule:evenodd;stroke-linejoin:round;stroke-miterlimit:2;">
    <g id="logo-long" transform="matrix(0.75,0,0,0.1875,0,0)">
        <rect x="0" y="0" width="1280" height="1280" style="fill:rgb(26,26,26);"/>
        <g transform="matrix(1.33333,0,0,5.33333,-568.52,-3204.5)">
            <g transform="matrix(144,0,0,144,492.516,770.766)">
                <path d="M0.413,0.093L0.034,-0.786L0.168,-0.786L0.547,0.093L0.413,0.093Z" style="fill:rgb(77,77,77);fill-rule:nonzero;"/>
            </g>
            <g transform="matrix(144,0,0,144,566.811,770.766)">
                <path d="M0.07,-0L0.07,-0.122L0.261,-0.122L0.261,-0.396L0.099,-0.396L0.099,-0.518L0.393,-0.518L0.393,-0.122L0.546,-0.122L0.546,-0L0.07,-0ZM0.321,-0.587C0.296,-0.587 0.276,-0.595 0.26,-0.611C0.245,-0.626 0.237,-0.647 0.237,-0.672C0.237,-0.697 0.245,-0.717 0.26,-0.733C0.276,-0.749 0.296,-0.756 0.321,-0.756C0.346,-0.756 0.367,-0.749 0.382,-0.733C0.398,-0.717 0.406,-0.697 0.406,-0.672C0.406,-0.647 0.398,-0.626 0.382,-0.611C0.367,-0.595 0.346,-0.587 0.321,-0.587Z" style="fill:white;fill-rule:nonzero;"/>
            </g>
            <g transform="matrix(144,0,0,144,641.106,770.766)">
                <path d="M0.38,-0L0.38,-0.304C0.38,-0.335 0.373,-0.36 0.361,-0.376C0.348,-0.393 0.329,-0.402 0.306,-0.402C0.239,-0.402 0.206,-0.354 0.206,-0.258L0.206,-0L0.074,-0L0.074,-0.518L0.192,-0.518L0.204,-0.424L0.219,-0.424C0.224,-0.459 0.236,-0.485 0.254,-0.502C0.273,-0.519 0.302,-0.527 0.34,-0.527C0.395,-0.527 0.437,-0.511 0.467,-0.478C0.497,-0.444 0.512,-0.397 0.512,-0.337L0.512,-0L0.38,-0Z" style="fill:white;fill-rule:nonzero;"/>
            </g>
            <g transform="matrix(144,0,0,144,715.401,770.766)">
                <path d="M0.07,-0L0.07,-0.732L0.202,-0.732L0.202,-0.31L0.21,-0.31C0.249,-0.31 0.281,-0.316 0.305,-0.33C0.33,-0.343 0.35,-0.365 0.364,-0.396C0.379,-0.426 0.389,-0.467 0.396,-0.518L0.532,-0.518C0.516,-0.395 0.48,-0.306 0.422,-0.251L0.565,-0L0.408,-0L0.311,-0.192C0.288,-0.187 0.262,-0.184 0.234,-0.184L0.202,-0.184L0.202,-0L0.07,-0Z" style="fill:white;fill-rule:nonzero;"/>
            </g>
            <g transform="matrix(144,0,0,144,789.696,770.766)">
                <path d="M0.253,0.01C0.175,0.01 0.114,0.005 0.068,-0.005L0.083,-0.131C0.125,-0.126 0.159,-0.122 0.187,-0.12C0.215,-0.117 0.237,-0.116 0.253,-0.116C0.297,-0.116 0.329,-0.119 0.349,-0.125C0.369,-0.131 0.379,-0.14 0.379,-0.154C0.379,-0.168 0.369,-0.178 0.348,-0.184L0.18,-0.233C0.145,-0.243 0.119,-0.258 0.102,-0.279C0.084,-0.3 0.076,-0.327 0.076,-0.362C0.076,-0.472 0.17,-0.527 0.359,-0.527C0.382,-0.527 0.405,-0.527 0.428,-0.525C0.452,-0.523 0.478,-0.521 0.504,-0.518L0.49,-0.395C0.461,-0.398 0.435,-0.399 0.413,-0.4C0.39,-0.401 0.372,-0.402 0.356,-0.402C0.305,-0.402 0.268,-0.399 0.245,-0.393C0.222,-0.388 0.211,-0.378 0.211,-0.365C0.211,-0.351 0.221,-0.341 0.24,-0.335L0.385,-0.295C0.43,-0.283 0.463,-0.266 0.485,-0.243C0.507,-0.22 0.518,-0.19 0.518,-0.153C0.518,-0.045 0.43,0.01 0.253,0.01Z" style="fill:white;fill-rule:nonzero;"/>
            </g>
            <g transform="matrix(144,0,0,144,863.991,770.766)">
                <path d="M0.403,0.01C0.314,0.01 0.249,-0.008 0.209,-0.044C0.17,-0.08 0.15,-0.137 0.15,-0.216L0.15,-0.396L0.026,-0.396L0.026,-0.518L0.15,-0.518L0.15,-0.674L0.282,-0.674L0.282,-0.518L0.511,-0.518L0.511,-0.396L0.282,-0.396L0.282,-0.229C0.282,-0.189 0.292,-0.16 0.312,-0.143C0.333,-0.125 0.366,-0.116 0.413,-0.116C0.428,-0.116 0.444,-0.117 0.461,-0.118C0.478,-0.12 0.497,-0.123 0.519,-0.125L0.531,-0.002C0.509,0.002 0.488,0.005 0.468,0.007C0.448,0.009 0.426,0.01 0.403,0.01Z" style="fill:white;fill-rule:nonzero;"/>
            </g>
            <g transform="matrix(144,0,0,144,938.286,770.766)">
                <path d="M0.293,0.01C0.218,0.01 0.161,-0.014 0.12,-0.061C0.079,-0.107 0.058,-0.174 0.058,-0.259C0.058,-0.344 0.079,-0.411 0.12,-0.457C0.161,-0.504 0.218,-0.527 0.293,-0.527C0.368,-0.527 0.425,-0.504 0.466,-0.457C0.507,-0.411 0.528,-0.344 0.528,-0.259C0.528,-0.174 0.507,-0.107 0.466,-0.061C0.425,-0.014 0.368,0.01 0.293,0.01ZM0.293,-0.116C0.325,-0.116 0.349,-0.128 0.367,-0.153C0.384,-0.178 0.393,-0.213 0.393,-0.259C0.393,-0.305 0.384,-0.34 0.367,-0.365C0.349,-0.389 0.325,-0.402 0.293,-0.402C0.261,-0.402 0.237,-0.389 0.219,-0.365C0.202,-0.34 0.193,-0.305 0.193,-0.259C0.193,-0.213 0.202,-0.178 0.219,-0.153C0.237,-0.128 0.261,-0.116 0.293,-0.116Z" style="fill:white;fill-rule:nonzero;"/>
            </g>
            <g transform="matrix(144,0,0,144,1012.58,770.766)">
                <path d="M0.38,-0L0.38,-0.304C0.38,-0.335 0.373,-0.36 0.361,-0.376C0.348,-0.393 0.329,-0.402 0.306,-0.402C0.239,-0.402 0.206,-0.354 0.206,-0.258L0.206,-0L0.074,-0L0.074,-0.518L0.192,-0.518L0.204,-0.424L0.219,-0.424C0.224,-0.459 0.236,-0.485 0.254,-0.502C0.273,-0.519 0.302,-0.527 0.34,-0.527C0.395,-0.527 0.437,-0.511 0.467,-0.478C0.497,-0.444 0.512,-0.397 0.512,-0.337L0.512,-0L0.38,-0Z" style="fill:white;fill-rule:nonzero;"/>
            </g>
            <g transform="matrix(144,0,0,144,1086.88,770.766)">
                <path d="M0.334,0.01C0.244,0.01 0.175,-0.013 0.126,-0.06C0.078,-0.106 0.053,-0.173 0.053,-0.26C0.053,-0.344 0.074,-0.41 0.115,-0.457C0.157,-0.504 0.215,-0.527 0.291,-0.527C0.365,-0.527 0.422,-0.506 0.462,-0.462C0.503,-0.419 0.523,-0.356 0.523,-0.273C0.523,-0.25 0.522,-0.228 0.52,-0.207L0.191,-0.207C0.212,-0.146 0.263,-0.115 0.346,-0.115C0.369,-0.115 0.392,-0.116 0.415,-0.119C0.438,-0.121 0.461,-0.125 0.485,-0.129L0.498,-0.004C0.464,0.002 0.434,0.006 0.407,0.007C0.379,0.009 0.355,0.01 0.334,0.01ZM0.185,-0.298L0.393,-0.298C0.393,-0.333 0.384,-0.36 0.366,-0.378C0.349,-0.397 0.324,-0.406 0.292,-0.406C0.262,-0.406 0.238,-0.397 0.219,-0.378C0.201,-0.359 0.19,-0.333 0.185,-0.298Z" style="fill:white;fill-rule:nonzero;"/>
            </g>
            <g transform="matrix(144,0,0,144,1161.17,770.766)">
                <rect x="0.041" y="-0.407" width="0.555" height="0.122" style="fill:rgb(89,89,89);fill-rule:nonzero;"/>
            </g>
            <g transform="matrix(144,0,0,144,1235.47,770.766)">
                <path d="M-0.01,-0.285L-0.01,-0.407L0.366,-0.407L0.169,-0.611L0.255,-0.691L0.555,-0.376L0.555,-0.316L0.255,-0.001L0.169,-0.082L0.366,-0.285L-0.01,-0.285Z" style="fill:rgb(89,89,89);fill-rule:nonzero;"/>
            </g>
        </g>
    </g>
</svg>
